<?xml version="1.0" encoding="utf-8"?>
<!-- Generator: Adobe Illustrator 16.0.0, SVG Export Plug-In . SVG Version: 6.00 Build 0)  -->
<!DOCTYPE svg PUBLIC "-//W3C//DTD SVG 1.1//EN" "http://www.w3.org/Graphics/SVG/1.1/DTD/svg11.dtd">
<svg version="1.1" id="Layer_1" xmlns="http://www.w3.org/2000/svg" xmlns:xlink="http://www.w3.org/1999/xlink" x="0px" y="0px"
	 width="40px" height="40px" viewBox="0 0 40 40" enable-background="new 0 0 40 40" xml:space="preserve">
<g>
	<path fill="#263238" d="M0.836,30.164c0,4.971,4.029,9,9,9h20.328c4.971,0,9-4.029,9-9V9.836c0-4.971-4.029-9-9-9H9.836
		c-4.971,0-9,4.029-9,9V30.164z"/>
	<path fill="none" stroke="#FFFFFF" stroke-width="0.5" stroke-miterlimit="10" d="M0.836,30.164c0,4.971,4.029,9,9,9h20.328
		c4.971,0,9-4.029,9-9V9.836c0-4.971-4.029-9-9-9H9.836c-4.971,0-9,4.029-9,9V30.164z"/>
</g>
<path fill="#FFFFFF" d="M31.147,19.905c-0.067-1.1-0.524-1.98-0.982-2.604c0.846-1.23,0.982-2.357,0.982-3.153
	c0-3.505-2.229-3.777-2.854-3.896c-0.05-0.015-0.099-0.032-0.149-0.041c-0.002-0.001-0.005-0.002-0.007-0.003v0.002
	c-0.093-0.018-0.188-0.029-0.287-0.029H10.422c-0.869,0-1.573,0.705-1.573,1.574s0.705,1.573,1.573,1.573h17.143
	c0.2,0.252,0.422,0.617,0.442,1.03c0.019,0.394-0.149,0.82-0.501,1.273H10.422c-0.869,0-1.573,0.704-1.573,1.573
	s0.705,1.574,1.573,1.574h16.863c0.153,0.141,0.691,0.683,0.723,1.336c0.015,0.293-0.086,0.605-0.277,0.932H10.422
	c-0.869,0-1.573,0.705-1.573,1.574c0,0.868,0.705,1.573,1.573,1.573h17.428c0.068,0,0.134-0.012,0.199-0.02l0.003,0.006
	C30.414,24.181,31.21,20.911,31.147,19.905z"/>
<g>
	<path fill="#FFFFFF" d="M10.971,25.644v0.673h-0.638v4.056H9.65v-4.056H9.012v-0.673H10.971z"/>
	<path fill="#FFFFFF" d="M15.39,25.644h0.682v4.729H15.39V25.644z"/>
	<path fill="#FFFFFF" d="M20.684,25.644h1.769v0.673h-1.088v1.354h0.936v0.675h-0.936v1.354h1.088v0.673h-1.769V25.644z"/>
	<path fill="#FFFFFF" d="M26.932,25.644h0.994c0.605,0.002,0.908,0.334,0.908,0.995v0.711c0,0.416-0.18,0.69-0.537,0.822l0.766,2.2
		h-0.748l-0.613-2.08l-0.088,0.013v2.067h-0.682V25.644z M27.613,26.316v1.354h0.158c0.094,0,0.158-0.007,0.195-0.02
		c0.123-0.05,0.186-0.15,0.186-0.302v-0.711c0-0.215-0.1-0.322-0.297-0.322H27.613z"/>
</g>
</svg>
